<svg width="671.88125px" height="125px" xmlns="http://www.w3.org/2000/svg"
  viewBox="-85.94062500000001 12.5 671.88125 125" style="background: rgba(0, 0, 0, 0);" preserveAspectRatio="xMidYMid">
  <defs>
    <filter id="editing-hole" x="-100%" y="-100%" width="300%" height="300%">
      <feFlood flood-color="#000" result="black"></feFlood>
      <feMorphology operator="dilate" radius="2" in="SourceGraphic" result="erode"></feMorphology>
      <feGaussianBlur in="erode" stdDeviation="4" result="blur"></feGaussianBlur>
      <feOffset in="blur" dx="2" dy="2" result="offset"></feOffset>
      <feComposite operator="atop" in="offset" in2="black" result="merge"></feComposite>
      <feComposite operator="in" in="merge" in2="SourceGraphic" result="inner-shadow"></feComposite>
    </filter>
  </defs>
  <g filter="url(#editing-hole)">
    <g transform="translate(8.404993057250977, 99)">
      <path
        d="M37.63-22.41L37.63 0L31.22 0L31.22-22.41L31.22-22.41Q31.22-25.72 29.97-28.63L29.97-28.63L29.97-28.63Q28.72-31.53 26.55-33.70L26.55-33.70L26.55-33.70Q24.38-35.88 21.45-37.14L21.45-37.14L21.45-37.14Q18.53-38.41 15.22-38.41L15.22-38.41L11.78-38.41L11.78 0L5.38 0L5.38-44.81L15.22-44.81L15.22-44.81Q18.28-44.81 21.11-44.02L21.11-44.02L21.11-44.02Q23.94-43.22 26.41-41.78L26.41-41.78L26.41-41.78Q28.88-40.34 30.91-38.34L30.91-38.34L30.91-38.34Q32.94-36.34 34.44-33.91L34.44-33.91L34.44-33.91Q35.91-36.34 37.94-38.34L37.94-38.34L37.94-38.34Q39.97-40.34 42.44-41.78L42.44-41.78L42.44-41.78Q44.91-43.22 47.73-44.02L47.73-44.02L47.73-44.02Q50.56-44.81 53.63-44.81L53.63-44.81L63.50-44.81L63.50 0L57.09 0L57.09-38.41L53.63-38.41L53.63-38.41Q50.31-38.41 47.41-37.14L47.41-37.14L47.41-37.14Q44.50-35.88 42.33-33.70L42.33-33.70L42.33-33.70Q40.16-31.53 38.89-28.63L38.89-28.63L38.89-28.63Q37.63-25.72 37.63-22.41L37.63-22.41ZM113.56-24L113.56 0L81.56 0L81.56 0Q79.22 0 77.19-0.88L77.19-0.88L77.19-0.88Q75.16-1.75 73.63-3.27L73.63-3.27L73.63-3.27Q72.09-4.78 71.22-6.83L71.22-6.83L71.22-6.83Q70.34-8.88 70.34-11.19L70.34-11.19L70.34-11.19Q70.34-13.53 71.22-15.56L71.22-15.56L71.22-15.56Q72.09-17.59 73.63-19.13L73.63-19.13L73.63-19.13Q75.16-20.66 77.19-21.53L77.19-21.53L77.19-21.53Q79.22-22.41 81.56-22.41L81.56-22.41L103.94-22.41L103.94-16L81.56-16L81.56-16Q80.56-16 79.69-15.61L79.69-15.61L79.69-15.61Q78.81-15.22 78.16-14.56L78.16-14.56L78.16-14.56Q77.50-13.91 77.13-13.03L77.13-13.03L77.13-13.03Q76.75-12.16 76.75-11.19L76.75-11.19L76.75-11.19Q76.75-10.19 77.13-9.33L77.13-9.33L77.13-9.33Q77.50-8.47 78.16-7.81L78.16-7.81L78.16-7.81Q78.81-7.16 79.69-6.78L79.69-6.78L79.69-6.78Q80.56-6.41 81.56-6.41L81.56-6.41L107.16-6.41L107.16-24L107.16-24Q107.16-24.97 106.77-25.84L106.77-25.84L106.77-25.84Q106.38-26.72 105.72-27.38L105.72-27.38L105.72-27.38Q105.06-28.03 104.19-28.42L104.19-28.42L104.19-28.42Q103.31-28.81 102.34-28.81L102.34-28.81L76.75-28.81L76.75-35.19L102.34-35.19L102.34-35.19Q104.69-35.19 106.72-34.31L106.72-34.31L106.72-34.31Q108.75-33.44 110.28-31.92L110.28-31.92L110.28-31.92Q111.81-30.41 112.69-28.38L112.69-28.38L112.69-28.38Q113.56-26.34 113.56-24L113.56-24ZM134.88-28.81L134.88 0L128.47 0L128.47-28.81L118.88-28.81L118.88-35.19L128.47-35.19L128.47-48L134.88-48L134.88-35.19L157.28-35.19L157.28-28.81L134.88-28.81ZM174.69-28.81L174.69 0L168.28 0L168.28-28.81L158.69-28.81L158.69-35.19L168.28-35.19L168.28-48L174.69-48L174.69-35.19L197.09-35.19L197.09-28.81L174.69-28.81ZM273.81-6.41L273.81 0L244.97 0L244.97 0Q240.31 0 236.50-1.75L236.50-1.75L236.50-1.75Q232.69-3.50 229.98-6.53L229.98-6.53L229.98-6.53Q227.28-9.56 225.81-13.66L225.81-13.66L225.81-13.66Q224.34-17.75 224.34-22.41L224.34-22.41L224.34-22.41Q224.34-27.03 225.81-31.11L225.81-31.11L225.81-31.11Q227.28-35.19 229.98-38.23L229.98-38.23L229.98-38.23Q232.69-41.28 236.50-43.05L236.50-43.05L236.50-43.05Q240.31-44.81 244.97-44.81L244.97-44.81L273.81-44.81L273.81-38.41L244.97-38.41L244.97-38.41Q241.66-38.41 239.02-37.14L239.02-37.14L239.02-37.14Q236.38-35.88 234.55-33.70L234.55-33.70L234.55-33.70Q232.72-31.53 231.73-28.63L231.73-28.63L231.73-28.63Q230.75-25.72 230.75-22.41L230.75-22.41L230.75-22.41Q230.75-19.09 231.73-16.17L231.73-16.17L231.73-16.17Q232.72-13.25 234.55-11.08L234.55-11.08L234.55-11.08Q236.38-8.91 239.02-7.66L239.02-7.66L239.02-7.66Q241.66-6.41 244.97-6.41L244.97-6.41L273.81-6.41ZM322.28-17.59L322.28 0L315.88 0L315.88-17.59L315.88-17.59Q315.88-19.91 315-21.94L315-21.94L315-21.94Q314.13-23.97 312.63-25.48L312.63-25.48L312.63-25.48Q311.13-27 309.11-27.89L309.11-27.89L309.11-27.89Q307.09-28.78 304.78-28.81L304.78-28.81L287.19-28.81L287.19 0L280.78 0L280.78-48L287.19-48L287.19-35.19L304.78-35.19L304.78-35.19Q308.41-35.19 311.59-33.80L311.59-33.80L311.59-33.80Q314.78-32.41 317.16-30.02L317.16-30.02L317.16-30.02Q319.53-27.63 320.91-24.42L320.91-24.42L320.91-24.42Q322.28-21.22 322.28-17.59L322.28-17.59ZM338.91-43.19L338.91-43.19L338.91-43.19Q338.91-42.19 338.53-41.33L338.53-41.33L338.53-41.33Q338.16-40.47 337.50-39.81L337.50-39.81L337.50-39.81Q336.84-39.16 335.97-38.78L335.97-38.78L335.97-38.78Q335.09-38.41 334.13-38.41L334.13-38.41L334.13-38.41Q333.13-38.41 332.25-38.78L332.25-38.78L332.25-38.78Q331.38-39.16 330.72-39.81L330.72-39.81L330.72-39.81Q330.06-40.47 329.69-41.33L329.69-41.33L329.69-41.33Q329.31-42.19 329.31-43.19L329.31-43.19L329.31-43.19Q329.31-44.16 329.69-45.03L329.69-45.03L329.69-45.03Q330.06-45.91 330.72-46.56L330.72-46.56L330.72-46.56Q331.38-47.22 332.25-47.61L332.25-47.61L332.25-47.61Q333.13-48 334.13-48L334.13-48L334.13-48Q335.09-48 335.97-47.61L335.97-47.61L335.97-47.61Q336.84-47.22 337.50-46.56L337.50-46.56L337.50-46.56Q338.16-45.91 338.53-45.03L338.53-45.03L338.53-45.03Q338.91-44.16 338.91-43.19ZM337.31-35.19L337.31 0L330.91 0L330.91-35.19L337.31-35.19ZM386.63-24L386.63 0L354.63 0L354.63 0Q352.28 0 350.25-0.88L350.25-0.88L350.25-0.88Q348.22-1.75 346.69-3.27L346.69-3.27L346.69-3.27Q345.16-4.78 344.28-6.83L344.28-6.83L344.28-6.83Q343.41-8.88 343.41-11.19L343.41-11.19L343.41-11.19Q343.41-13.53 344.28-15.56L344.28-15.56L344.28-15.56Q345.16-17.59 346.69-19.13L346.69-19.13L346.69-19.13Q348.22-20.66 350.25-21.53L350.25-21.53L350.25-21.53Q352.28-22.41 354.63-22.41L354.63-22.41L377-22.41L377-16L354.63-16L354.63-16Q353.63-16 352.75-15.61L352.75-15.61L352.75-15.61Q351.88-15.22 351.22-14.56L351.22-14.56L351.22-14.56Q350.56-13.91 350.19-13.03L350.19-13.03L350.19-13.03Q349.81-12.16 349.81-11.19L349.81-11.19L349.81-11.19Q349.81-10.19 350.19-9.33L350.19-9.33L350.19-9.33Q350.56-8.47 351.22-7.81L351.22-7.81L351.22-7.81Q351.88-7.16 352.75-6.78L352.75-6.78L352.75-6.78Q353.63-6.41 354.63-6.41L354.63-6.41L380.22-6.41L380.22-24L380.22-24Q380.22-24.97 379.83-25.84L379.83-25.84L379.83-25.84Q379.44-26.72 378.78-27.38L378.78-27.38L378.78-27.38Q378.13-28.03 377.25-28.42L377.25-28.42L377.25-28.42Q376.38-28.81 375.41-28.81L375.41-28.81L349.81-28.81L349.81-35.19L375.41-35.19L375.41-35.19Q377.75-35.19 379.78-34.31L379.78-34.31L379.78-34.31Q381.81-33.44 383.34-31.92L383.34-31.92L383.34-31.92Q384.88-30.41 385.75-28.38L385.75-28.38L385.75-28.38Q386.63-26.34 386.63-24L386.63-24ZM430.53-35.19L430.53-28.81L406.53-28.81L406.53-28.81Q405.53-28.81 404.66-28.42L404.66-28.42L404.66-28.42Q403.78-28.03 403.13-27.38L403.13-27.38L403.13-27.38Q402.47-26.72 402.09-25.84L402.09-25.84L402.09-25.84Q401.72-24.97 401.72-24L401.72-24L401.72 0L395.31 0L395.31-24L395.31-24Q395.31-26.34 396.19-28.38L396.19-28.38L396.19-28.38Q397.06-30.41 398.59-31.92L398.59-31.92L398.59-31.92Q400.13-33.44 402.16-34.31L402.16-34.31L402.16-34.31Q404.19-35.19 406.53-35.19L406.53-35.19L430.53-35.19ZM477.81-17.59L477.81-17.59L477.81-17.59Q477.81-13.97 476.44-10.78L476.44-10.78L476.44-10.78Q475.06-7.59 472.70-5.20L472.70-5.20L472.70-5.20Q470.34-2.81 467.16-1.42L467.16-1.42L467.16-1.42Q463.97-0.03 460.34 0L460.34 0L450.50 0L450.50 0Q446.88-0.03 443.69-1.42L443.69-1.42L443.69-1.42Q440.50-2.81 438.14-5.20L438.14-5.20L438.14-5.20Q435.78-7.59 434.41-10.78L434.41-10.78L434.41-10.78Q433.03-13.97 433.03-17.59L433.03-17.59L433.03-17.59Q433.03-21.22 434.41-24.42L434.41-24.42L434.41-24.42Q435.78-27.63 438.14-30.02L438.14-30.02L438.14-30.02Q440.50-32.41 443.69-33.80L443.69-33.80L443.69-33.80Q446.88-35.19 450.50-35.19L450.50-35.19L460.34-35.19L460.34-35.19Q462.75-35.19 465-34.56L465-34.56L465-34.56Q467.25-33.94 469.19-32.78L469.19-32.78L469.19-32.78Q471.13-31.63 472.72-30.02L472.72-30.02L472.72-30.02Q474.31-28.41 475.44-26.45L475.44-26.45L475.44-26.45Q476.56-24.50 477.19-22.25L477.19-22.25L477.19-22.25Q477.81-20 477.81-17.59ZM471.44-17.59L471.44-17.59L471.44-17.59Q471.44-19.91 470.56-21.94L470.56-21.94L470.56-21.94Q469.69-23.97 468.19-25.48L468.19-25.48L468.19-25.48Q466.69-27 464.67-27.89L464.67-27.89L464.67-27.89Q462.66-28.78 460.34-28.81L460.34-28.81L450.50-28.81L450.50-28.81Q448.19-28.78 446.17-27.89L446.17-27.89L446.17-27.89Q444.16-27 442.66-25.48L442.66-25.48L442.66-25.48Q441.16-23.97 440.30-21.94L440.30-21.94L440.30-21.94Q439.44-19.91 439.44-17.59L439.44-17.59L439.44-17.59Q439.44-15.28 440.30-13.25L440.30-13.25L440.30-13.25Q441.16-11.22 442.66-9.70L442.66-9.70L442.66-9.70Q444.16-8.19 446.17-7.30L446.17-7.30L446.17-7.30Q448.19-6.41 450.50-6.41L450.50-6.41L460.34-6.41L460.34-6.41Q462.66-6.41 464.67-7.30L464.67-7.30L464.67-7.30Q466.69-8.19 468.19-9.70L468.19-9.70L468.19-9.70Q469.69-11.22 470.56-13.25L470.56-13.25L470.56-13.25Q471.44-15.28 471.44-17.59Z"
        fill="#ccc"></path>
    </g>
  </g>
  <style>
    text {
      font-size: 64px;
      font-family: Arial Black;
      dominant-baseline: central;
      text-anchor: middle;
    }
  </style>
</svg>